<?xml version="1.0" standalone="no"?>
<!DOCTYPE svg PUBLIC "-//W3C//DTD SVG 20010904//EN"
 "http://www.w3.org/TR/2001/REC-SVG-20010904/DTD/svg10.dtd">
<svg version="1.0" xmlns="http://www.w3.org/2000/svg"
 width="1052.000000pt" height="1052.000000pt" viewBox="0 0 1052.000000 1052.000000"
 preserveAspectRatio="xMidYMid meet">
<metadata>
Created by potrace 1.11, written by Peter Selinger 2001-2013
</metadata>
<g transform="translate(0.000000,1052.000000) scale(0.100000,-0.100000)"
fill="#000000" stroke="none">
<path d="M3325 10509 c-33 -5 -71 -11 -85 -13 -23 -5 -36 -7 -100 -20 -155
-32 -373 -127 -525 -228 -114 -77 -315 -251 -315 -274 0 -4 -11 -16 -23 -28
-32 -28 -117 -142 -117 -155 0 -6 -3 -11 -7 -11 -17 0 -129 -217 -170 -330
-44 -120 -63 -190 -79 -290 -3 -19 -8 -46 -12 -60 -4 -14 -8 -1208 -9 -2655
-2 -2707 -2 -2638 32 -2820 11 -60 19 -89 51 -185 36 -109 119 -286 160 -342
13 -18 24 -36 24 -40 0 -4 8 -16 18 -26 9 -10 24 -29 32 -41 89 -132 320 -350
435 -408 17 -9 32 -19 35 -24 8 -11 216 -114 255 -125 6 -1 35 -12 65 -23 67
-24 142 -45 153 -43 4 1 16 -2 25 -7 9 -5 40 -11 67 -15 28 -3 77 -10 110 -15
65 -9 347 -8 380 2 11 3 42 8 69 12 27 3 57 10 66 15 10 5 19 7 22 5 2 -3 20
0 39 6 19 5 43 12 54 15 30 8 38 10 60 19 11 4 53 21 94 37 95 37 221 100 221
110 0 4 6 8 13 8 11 0 152 92 167 110 3 3 21 18 40 34 86 69 168 155 247 256
47 61 123 175 123 185 0 2 11 21 25 41 14 20 23 40 20 44 -3 5 -2 10 3 12 8 3
42 77 74 163 19 52 64 218 72 270 3 17 8 46 11 65 5 28 16 204 16 245 0 22 -1
261 -1 280 1 143 1 175 1 435 -1 124 -1 232 0 240 0 8 0 71 0 140 -1 69 -1
132 -1 140 0 26 0 164 -1 205 -1 55 -1 74 0 120 1 22 0 73 -1 113 -2 39 1 72
5 72 5 0 6 4 3 9 -5 8 -10 230 -6 256 1 6 1 25 0 43 -5 99 -4 172 3 172 5 0 6
4 2 9 -3 5 -5 63 -5 128 0 119 0 152 -3 276 -1 37 2 67 6 67 5 0 6 4 3 9 -6 8
-10 231 -5 256 1 6 1 14 0 18 -2 11 -2 142 -1 235 1 41 -1 76 -4 80 -3 3 -1
11 4 17 6 8 7 22 2 36 -4 13 -5 44 -2 69 3 25 2 64 -1 87 -3 23 -2 46 3 51 5
5 5 20 1 33 -5 13 -6 44 -3 69 3 25 2 64 -1 87 -3 23 -2 46 3 51 5 5 5 20 1
33 -5 13 -6 44 -3 69 3 25 2 64 -1 87 -3 23 -2 46 3 51 5 5 5 20 1 33 -5 13
-6 44 -3 69 3 25 2 64 -1 87 -3 23 -2 46 3 51 5 5 5 20 1 33 -5 13 -6 44 -3
69 3 25 2 64 -1 87 -3 23 -2 46 3 51 5 5 5 20 -1 34 -5 14 -8 28 -5 30 2 3 4
29 4 59 0 30 0 63 0 74 0 11 -1 45 -1 75 -1 30 0 66 1 80 2 32 2 27 -6 140 -4
52 -8 107 -8 123 -1 15 -4 27 -7 27 -4 0 -9 19 -12 43 -3 23 -8 51 -10 62 -15
65 -30 112 -39 123 -6 6 -8 12 -5 12 11 0 -33 114 -87 220 -57 114 -150 257
-211 325 -62 70 -167 174 -197 198 -16 12 -41 32 -56 45 -108 91 -381 235
-507 266 -5 2 -17 6 -25 9 -8 3 -37 11 -65 17 -27 6 -59 13 -70 15 -11 3 -33
7 -50 10 -16 3 -43 8 -60 11 -51 10 -357 12 -420 3z"/>
<path d="M6968 3295 c-1 -1 -49 -5 -106 -9 -57 -3 -106 -7 -110 -10 -4 -2 -32
-7 -62 -11 -30 -4 -58 -9 -61 -11 -3 -2 -21 -6 -39 -9 -18 -3 -72 -19 -119
-36 -47 -17 -90 -31 -96 -33 -5 -1 -36 -14 -68 -29 -32 -15 -62 -27 -67 -27
-6 0 -10 -3 -10 -8 0 -4 -15 -13 -32 -21 -51 -22 -193 -118 -262 -176 -68 -58
-196 -182 -196 -191 0 -3 -12 -17 -26 -32 -73 -77 -247 -376 -269 -462 0 -3
-11 -34 -23 -70 -27 -81 -51 -181 -58 -240 -3 -25 -9 -65 -14 -89 -9 -48 -6
-348 4 -396 4 -16 11 -57 17 -90 6 -33 13 -69 15 -81 15 -78 93 -281 146 -377
21 -39 38 -71 38 -73 0 -3 59 -92 72 -109 104 -132 138 -171 200 -230 40 -39
109 -98 153 -130 44 -33 82 -62 85 -65 16 -16 280 -152 280 -144 0 4 6 2 13
-3 21 -18 207 -74 286 -88 19 -3 37 -7 40 -9 28 -17 383 -27 466 -13 22 4 58
9 80 11 22 2 60 9 85 15 25 7 55 14 67 16 12 3 35 10 50 16 16 6 28 10 28 9 0
-2 33 9 70 23 17 7 32 12 35 13 13 2 71 29 135 61 163 82 333 208 449 332 23
25 49 53 59 63 9 10 44 55 77 101 76 104 73 99 86 123 58 104 76 139 95 186
11 29 26 67 34 83 18 42 23 58 50 160 23 88 28 114 45 225 8 59 6 379 -4 420
-3 13 -8 42 -12 64 -3 22 -7 43 -9 47 -2 3 -7 21 -10 40 -3 19 -16 66 -28 104
-12 39 -22 72 -22 75 -7 30 -117 253 -146 297 -16 23 -29 44 -29 47 0 3 -6 14
-14 23 -8 10 -36 46 -61 81 -43 57 -189 209 -246 257 -57 47 -185 135 -196
135 -7 0 -13 4 -13 9 0 5 -8 11 -17 14 -10 3 -46 22 -80 41 -35 19 -63 33 -63
31 0 -2 -21 6 -47 20 -27 13 -68 29 -93 35 -25 7 -49 15 -55 18 -5 4 -16 8
-22 9 -7 2 -19 5 -25 6 -36 10 -66 17 -88 21 -14 3 -36 8 -50 11 -37 9 -74 13
-185 20 -55 3 -105 8 -112 10 -6 2 -13 2 -15 0z"/>
</g>
</svg>
